<svg width="24" height="25" viewBox="0 0 24 25" fill="none" xmlns="http://www.w3.org/2000/svg">
<g clip-path="url(#clip0_174_37)">
<path d="M12 2.5C17.523 2.5 22 6.977 22 12.5C22 18.023 17.523 22.5 12 22.5C6.477 22.5 2 18.023 2 12.5C2 6.977 6.477 2.5 12 2.5ZM13.67 16.5H10.33L8.95 18.397L9.504 20.103C10.3097 20.3669 11.1522 20.5009 12 20.5C12.871 20.5 13.71 20.36 14.496 20.103L15.049 18.397L13.669 16.5H13.67ZM5.294 11.372L4.002 12.309L4 12.5C4 14.23 4.549 15.831 5.482 17.14H7.392L8.715 15.32L7.687 12.15L5.294 11.372ZM18.706 11.372L16.313 12.15L15.285 15.32L16.607 17.14H18.517C19.4838 15.7862 20.0024 14.1636 20 12.5L19.997 12.309L18.706 11.372ZM14.29 4.833L13 5.773V8.29L15.694 10.247L17.933 9.52L18.487 7.817C17.4546 6.38787 15.9798 5.33905 14.291 4.833H14.29ZM9.708 4.833C8.01904 5.33931 6.54421 6.3885 5.512 7.818L6.066 9.52L8.305 10.247L11 8.29V5.773L9.709 4.833H9.708Z" fill="#A4A4A4"/>
</g>
<defs>
<clipPath id="clip0_174_37">
<rect width="24" height="24" fill="white" transform="translate(0 0.5)"/>
</clipPath>
</defs>
</svg>
