<svg width="24" height="25" viewBox="0 0 24 25" fill="none" xmlns="http://www.w3.org/2000/svg">
<g clip-path="url(#clip0_174_46)">
<path d="M11.6132 2.5C14.1627 2.5 16.6079 3.51281 18.4107 5.31563C20.2135 7.11845 21.2263 9.5636 21.2263 12.1132C21.2287 13.6076 20.8811 15.0818 20.2114 16.4178L22.7037 18.9112C22.8934 19.101 23 19.3583 23 19.6266C23 19.8949 22.8934 20.1523 22.7037 20.342L19.842 23.2037C19.6523 23.3934 19.3949 23.5 19.1266 23.5C18.8583 23.5 18.601 23.3934 18.4112 23.2037L15.9178 20.7114C14.5818 21.3811 13.1076 21.7287 11.6132 21.7263C9.0636 21.7263 6.61845 20.7135 4.81563 18.9107C3.01281 17.1079 2 14.6627 2 12.1132C2 9.5636 3.01281 7.11845 4.81563 5.31563C6.61845 3.51281 9.0636 2.5 11.6132 2.5ZM16.9793 16.0475L15.5485 17.4783L19.1266 21.0554L20.5575 19.6246L16.9793 16.0475ZM18.8655 9.86976L9.36976 19.3655C10.0781 19.5841 10.832 19.7025 11.6132 19.7025C12.5619 19.7038 13.5025 19.5266 14.3858 19.1804L13.4022 18.1948C13.2125 18.005 13.106 17.7477 13.106 17.4793C13.106 17.211 13.2125 16.9537 13.4022 16.7639L16.2639 13.9022C16.4537 13.7125 16.711 13.606 16.9793 13.606C17.2477 13.606 17.505 13.7125 17.6948 13.9022L18.6804 14.8858C19.0266 14.0025 19.2038 13.0619 19.2025 12.1132C19.2025 11.332 19.0841 10.5791 18.8655 9.86976Z" fill="#A4A4A4"/>
</g>
<defs>
<clipPath id="clip0_174_46">
<rect width="24" height="24" fill="white" transform="translate(0 0.5)"/>
</clipPath>
</defs>
</svg>
