<svg width="24" height="25" viewBox="0 0 24 25" fill="none" xmlns="http://www.w3.org/2000/svg">
<g clip-path="url(#clip0_174_43)">
<path d="M12 2.5C17.523 2.5 22 6.977 22 12.5C22 18.023 17.523 22.5 12 22.5C6.477 22.5 2 18.023 2 12.5C2 6.977 6.477 2.5 12 2.5ZM12 6.5C10.4087 6.5 8.88258 7.13214 7.75736 8.25736C6.63214 9.38258 6 10.9087 6 12.5C6 14.0913 6.63214 15.6174 7.75736 16.7426C8.88258 17.8679 10.4087 18.5 12 18.5C13.5913 18.5 15.1174 17.8679 16.2426 16.7426C17.3679 15.6174 18 14.0913 18 12.5C18 10.9087 17.3679 9.38258 16.2426 8.25736C15.1174 7.13214 13.5913 6.5 12 6.5ZM12 8.25C12.4805 8.24998 12.9508 8.38844 13.3547 8.64878C13.7585 8.90913 14.0788 9.28033 14.2771 9.71797C14.4755 10.1556 14.5435 10.6411 14.4731 11.1164C14.4026 11.5917 14.1967 12.0367 13.88 12.398C14.445 12.854 14.8 13.515 14.8 14.25C14.8 15.63 13.546 16.75 12 16.75C10.454 16.75 9.2 15.63 9.2 14.25C9.2 13.515 9.555 12.854 10.12 12.397C9.80358 12.0357 9.59794 11.5908 9.52768 11.1157C9.45743 10.6405 9.52553 10.1552 9.72385 9.71777C9.92216 9.28032 10.2423 8.90925 10.6459 8.64896C11.0496 8.38866 11.5197 8.25015 12 8.25ZM12 13.25C11.247 13.25 10.7 13.738 10.7 14.25C10.7 14.762 11.247 15.25 12 15.25C12.753 15.25 13.3 14.762 13.3 14.25C13.3 13.738 12.753 13.25 12 13.25ZM12 9.75C11.7348 9.75 11.4804 9.85536 11.2929 10.0429C11.1054 10.2304 11 10.4848 11 10.75C11 11.0152 11.1054 11.2696 11.2929 11.4571C11.4804 11.6446 11.7348 11.75 12 11.75C12.2652 11.75 12.5196 11.6446 12.7071 11.4571C12.8946 11.2696 13 11.0152 13 10.75C13 10.4848 12.8946 10.2304 12.7071 10.0429C12.5196 9.85536 12.2652 9.75 12 9.75Z" fill="#A4A4A4"/>
</g>
<defs>
<clipPath id="clip0_174_43">
<rect width="24" height="24" fill="white" transform="translate(0 0.5)"/>
</clipPath>
</defs>
</svg>
