<svg width="24" height="25" viewBox="0 0 24 25" fill="none" xmlns="http://www.w3.org/2000/svg">
<g clip-path="url(#clip0_174_49)">
<path d="M5.5 21.5C4.90905 21.5 4.32389 21.3836 3.77792 21.1575C3.23196 20.9313 2.73588 20.5998 2.31802 20.182C1.90016 19.7641 1.56869 19.268 1.34254 18.7221C1.1164 18.1761 1 17.5909 1 17C1 16.4091 1.1164 15.8239 1.34254 15.2779C1.56869 14.732 1.90016 14.2359 2.31802 13.818C2.73588 13.4002 3.23196 13.0687 3.77792 12.8425C4.32389 12.6164 4.90905 12.5 5.5 12.5C6.69347 12.5 7.83807 12.9741 8.68198 13.818C9.52589 14.6619 10 15.8065 10 17C10 18.1935 9.52589 19.3381 8.68198 20.182C7.83807 21.0259 6.69347 21.5 5.5 21.5ZM5.5 19.5C6.16304 19.5 6.79893 19.2366 7.26777 18.7678C7.73661 18.2989 8 17.663 8 17C8 16.337 7.73661 15.7011 7.26777 15.2322C6.79893 14.7634 6.16304 14.5 5.5 14.5C4.83696 14.5 4.20107 14.7634 3.73223 15.2322C3.26339 15.7011 3 16.337 3 17C3 17.663 3.26339 18.2989 3.73223 18.7678C4.20107 19.2366 4.83696 19.5 5.5 19.5ZM18.5 21.5C17.9091 21.5 17.3239 21.3836 16.7779 21.1575C16.232 20.9313 15.7359 20.5998 15.318 20.182C14.9002 19.7641 14.5687 19.268 14.3425 18.7221C14.1164 18.1761 14 17.5909 14 17C14 16.4091 14.1164 15.8239 14.3425 15.2779C14.5687 14.732 14.9002 14.2359 15.318 13.818C15.7359 13.4002 16.232 13.0687 16.7779 12.8425C17.3239 12.6164 17.9091 12.5 18.5 12.5C19.6935 12.5 20.8381 12.9741 21.682 13.818C22.5259 14.6619 23 15.8065 23 17C23 18.1935 22.5259 19.3381 21.682 20.182C20.8381 21.0259 19.6935 21.5 18.5 21.5ZM18.5 19.5C19.163 19.5 19.7989 19.2366 20.2678 18.7678C20.7366 18.2989 21 17.663 21 17C21 16.337 20.7366 15.7011 20.2678 15.2322C19.7989 14.7634 19.163 14.5 18.5 14.5C17.837 14.5 17.2011 14.7634 16.7322 15.2322C16.2634 15.7011 16 16.337 16 17C16 17.663 16.2634 18.2989 16.7322 18.7678C17.2011 19.2366 17.837 19.5 18.5 19.5ZM11.023 10.805L13 12.5V18.5H11V13.5L8.281 11.234C8.03904 11.0677 7.83666 10.8502 7.68822 10.5969C7.53977 10.3436 7.44892 10.0608 7.4221 9.76841C7.39528 9.47605 7.43315 9.18137 7.53303 8.9053C7.6329 8.62923 7.79233 8.37853 8 8.171L10.828 5.343C11.0137 5.1572 11.2342 5.00981 11.4769 4.90925C11.7197 4.80869 11.9798 4.75693 12.2425 4.75693C12.5052 4.75693 12.7653 4.80869 13.0081 4.90925C13.2508 5.00981 13.4713 5.1572 13.657 5.343L15.071 6.757C16.13 7.81982 17.5038 8.51248 18.988 8.732L18.978 10.747C16.9642 10.5152 15.0884 9.60742 13.657 8.172L11.023 10.805ZM16 5.5C15.4696 5.5 14.9609 5.28929 14.5858 4.91421C14.2107 4.53914 14 4.03043 14 3.5C14 2.96957 14.2107 2.46086 14.5858 2.08579C14.9609 1.71071 15.4696 1.5 16 1.5C16.5304 1.5 17.0391 1.71071 17.4142 2.08579C17.7893 2.46086 18 2.96957 18 3.5C18 4.03043 17.7893 4.53914 17.4142 4.91421C17.0391 5.28929 16.5304 5.5 16 5.5Z" fill="#A4A4A4"/>
</g>
<defs>
<clipPath id="clip0_174_49">
<rect width="24" height="24" fill="white" transform="translate(0 0.5)"/>
</clipPath>
</defs>
</svg>
