<svg width="24" height="25" viewBox="0 0 24 25" fill="none" xmlns="http://www.w3.org/2000/svg">
<g clip-path="url(#clip0_174_40)">
<path d="M12.3655 13.866L14.1404 14.891C13.0808 17.238 12.9694 19.9037 13.8294 22.331C13.226 22.4439 12.6134 22.5005 11.9995 22.5C10.5826 22.5022 9.18148 22.2022 7.8897 21.62L12.3655 13.866ZM15.8823 15.898L20.1161 18.342C19.0132 19.8728 17.5011 21.0616 15.7533 21.772C15.0876 19.9745 15.0905 17.9976 15.7613 16.202L15.8823 15.898ZM8.85965 11.842L10.6346 12.866L6.15879 20.616C4.50317 19.4235 3.25081 17.7541 2.56897 15.831C4.98517 15.3848 7.15178 14.0627 8.65366 12.118L8.85965 11.842ZM21.905 11.116C21.968 11.569 22 12.031 22 12.5C22.0022 13.917 21.7022 15.3182 21.12 16.61L16.8842 14.165C18.0768 12.5909 19.8103 11.5146 21.75 11.144L21.905 11.116ZM2.88096 8.391L7.11574 10.836C5.89019 12.4534 4.09515 13.5438 2.095 13.886C2.03168 13.4267 1.99994 12.9636 2 12.5C2 11.035 2.31498 9.644 2.87996 8.39L2.88096 8.391ZM17.8412 4.38301C19.4968 5.57553 20.7492 7.24485 21.431 9.168C19.0144 9.61511 16.8476 10.9378 15.3453 12.883L15.1403 13.159L13.3654 12.134L17.8412 4.38401V4.38301ZM11.9995 2.50001C13.4644 2.50001 14.8553 2.81501 16.1093 3.38001L11.6335 11.134L9.8586 10.11C10.9187 7.76243 11.0302 5.09585 10.1696 2.66801C10.773 2.55552 11.3856 2.49927 11.9995 2.50001ZM8.24668 3.23001C8.91136 5.0278 8.90781 7.00461 8.23668 8.8L8.11669 9.103L3.8829 6.658C4.94309 5.18698 6.38199 4.03069 8.04669 3.31201L8.24668 3.22901V3.23001Z" fill="#A4A4A4"/>
</g>
<defs>
<clipPath id="clip0_174_40">
<rect width="24" height="24" fill="white" transform="translate(0 0.5)"/>
</clipPath>
</defs>
</svg>
