<svg width="24" height="24" viewBox="0 0 24 24" fill="none" xmlns="http://www.w3.org/2000/svg">
<g clip-path="url(#clip0_174_88)">
<path d="M20.998 13.242V20H21.9979V22H1.9999V20H2.9998V13.242C2.38423 12.8311 1.87962 12.2745 1.53077 11.6218C1.18191 10.969 0.999592 10.2402 1 9.5C1 8.673 1.22398 7.876 1.63294 7.197L4.34466 2.5C4.43242 2.34798 4.55864 2.22175 4.71064 2.13398C4.86264 2.04621 5.03506 2 5.21057 2H18.7882C18.9637 2 19.1361 2.04621 19.2881 2.13398C19.4401 2.22175 19.5664 2.34798 19.6541 2.5L22.3558 7.182C22.9523 8.17287 23.1441 9.35553 22.8912 10.4841C22.6383 11.6127 21.9602 12.6005 20.998 13.242ZM18.9982 13.972C18.3107 14.0491 17.6147 13.9665 16.9643 13.7307C16.3139 13.4948 15.7268 13.1119 15.2486 12.612C14.8288 13.0511 14.3244 13.4005 13.7659 13.6393C13.2074 13.878 12.6063 14.001 11.9989 14.001C11.3916 14.0013 10.7906 13.8786 10.2321 13.6402C9.67357 13.4018 9.16913 13.0527 8.74922 12.614C8.27089 13.1138 7.6837 13.4964 7.03334 13.7321C6.38299 13.9678 5.68701 14.0503 4.9996 13.973V20H18.9982V13.973V13.972ZM5.78852 4L3.35576 8.213C3.11936 8.79714 3.11227 9.44903 3.3359 10.0382C3.55952 10.6273 3.99738 11.1103 4.56182 11.3904C5.12627 11.6705 5.77566 11.7271 6.38004 11.5488C6.98441 11.3706 7.49918 10.9706 7.82131 10.429C8.15628 9.592 9.34116 9.592 9.67712 10.429C9.8624 10.8934 10.1827 11.2916 10.5966 11.5721C11.0104 11.8526 11.4989 12.0025 11.9989 12.0025C12.4989 12.0025 12.9873 11.8526 13.4012 11.5721C13.8151 11.2916 14.1354 10.8934 14.3207 10.429C14.6556 9.592 15.8405 9.592 16.1765 10.429C16.3062 10.7484 16.5007 11.0376 16.7475 11.2783C16.9944 11.519 17.2884 11.706 17.611 11.8275C17.9337 11.9491 18.278 12.0026 18.6223 11.9847C18.9666 11.9668 19.3034 11.8778 19.6117 11.7234C19.92 11.569 20.193 11.3525 20.4136 11.0875C20.6342 10.8225 20.7975 10.5148 20.8935 10.1836C20.9894 9.85238 21.0157 9.50493 20.9709 9.16305C20.9261 8.82118 20.8111 8.49227 20.633 8.197L18.2083 4H5.78952H5.78852Z" fill="#636363"/>
</g>
<defs>
<clipPath id="clip0_174_88">
<rect width="24" height="24" fill="white"/>
</clipPath>
</defs>
</svg>
